<?xml version="1.0" encoding="UTF-8" standalone="no"?>
<svg width="36px" height="36px" viewBox="0 0 36 36" version="1.1" xmlns="http://www.w3.org/2000/svg" xmlns:xlink="http://www.w3.org/1999/xlink">
    <!-- Generator: Sketch 39.1 (31720) - http://www.bohemiancoding.com/sketch -->
    <title>collect</title>
    <desc>Created with Sketch.</desc>
    <defs></defs>
    <g id="Page-1" stroke="none" stroke-width="1" fill="none" fill-rule="evenodd">
        <g id="collect" fill="#FF642E">
            <g id="Group">
                <ellipse id="Oval" cx="4.13378571" cy="4.94371648" rx="3.47148214" ry="2.33697912"></ellipse>
                <ellipse id="Oval" cx="31.9138929" cy="2.52580989" rx="3.74432143" ry="2.52065275"></ellipse>
                <path d="M32.5945179,5.81011648 C30.9026786,5.81011648 29.5308214,6.73364176 29.5308214,7.87257692 L29.5308214,9.22017802 L28.3946786,11.7388473 C28.3263214,11.8495275 28.1901964,12.108178 28.1230179,12.1288066 L21.8424107,14.8319429 C21.2431071,15.0176 20.16825,14.8882747 20.5082679,15.3099703 C20.8482857,15.7316659 21.6096429,15.9232736 22.2089464,15.7372198 L29.395875,13.6358824 C29.453625,13.6180308 29.4931071,13.5962121 29.532,13.5743934 L29.532,16.5798176 C29.532,16.5964791 30.2762679,24.8859912 30.2762679,24.8859912 C30.2762679,24.9458934 30.2933571,25.0030187 30.3069107,25.0609374 C30.3069107,25.0688714 30.6522321,34.229544 30.6522321,34.229544 C30.6522321,35.1114154 31.4230179,35.7072637 32.5980536,35.7072637 C33.7730893,35.7072637 34.576875,35.1011011 34.576875,34.2192297 L34.8927321,24.9062231 C34.8927321,24.9062231 35.6593929,16.6004462 35.6593929,16.5798176 L35.6593929,7.87257692 C35.6588036,6.73364176 34.2875357,5.81011648 32.5945179,5.81011648 L32.5945179,5.81011648 Z" id="Shape"></path>
                <path d="M19.933125,13.7116527 C19.9225179,13.6807099 19.9036607,13.6529407 19.8747857,13.6287418 C19.8706607,13.6255681 19.87125,13.6208077 19.867125,13.6172374 L18.0120536,12.2188582 C18.0986786,12.2018 18.1558393,12.1482451 18.1699821,12.0371681 C18.2271429,11.5940505 17.784,11.1838593 17.1793929,11.1215769 L10.0254643,10.273822 L6.13264286,9.18368132 C5.71071429,8.4838967 4.69419643,7.98920769 3.50325,7.98920769 C1.93457143,7.98920769 0.662892857,8.84529341 0.662892857,9.90131758 L0.662892857,17.9746264 C0.662892857,17.9936681 1.37357143,25.6940758 1.37357143,25.6940758 L1.66644643,34.3283231 C1.66644643,35.1459286 2.41189286,35.7080571 3.50089286,35.7080571 C4.59048214,35.7080571 5.30469643,35.1554495 5.30469643,34.337844 L5.62821429,25.8575176 C5.62821429,25.8499802 5.62526786,25.8448231 5.62467857,25.8376824 C5.63764286,25.7841275 5.65355357,25.7309692 5.65355357,25.6754308 C5.65355357,25.6754308 6.34360714,17.9900978 6.34360714,17.9746264 L6.34360714,11.486544 L9.529875,11.8348495 C9.61119643,11.851511 9.82923214,11.8737264 9.86458929,11.8772967 L16.6755536,11.9463231 L16.4139107,12.3473901 L14.2730357,13.5724099 C14.2706786,13.5736 14.2706786,13.5759802 14.2683214,13.577567 C14.2647857,13.5799473 14.2594821,13.5807407 14.2559464,13.5831209 C14.2194107,13.6077165 14.1964286,13.6382626 14.1811071,13.6707923 C14.1769821,13.6791231 14.1758036,13.6866604 14.1734464,13.6953879 C14.1699107,13.7080824 14.16225,13.7199835 14.1616607,13.7330747 L14.1204107,17.782622 C14.1204107,17.7917462 14.1263036,17.7996802 14.1280714,17.8088044 C14.1304286,17.8230857 14.133375,17.8369703 14.1404464,17.8508549 C14.1475179,17.8647396 14.1575357,17.8770374 14.1687321,17.8897319 C14.1752143,17.8972692 14.1775714,17.9063934 14.1858214,17.9135341 C14.1893571,17.9167077 14.19525,17.9178978 14.199375,17.9206747 C14.2217679,17.9381297 14.2482857,17.9516176 14.27775,17.9635187 C14.2871786,17.9674857 14.2948393,17.9730396 14.3048571,17.9762132 C14.3443393,17.988511 14.3873571,17.9960484 14.4333214,17.9964451 L19.487625,18.0198505 L19.487625,18.0198505 L19.4882143,18.0198505 L19.5878036,18.0202473 L19.5901607,18.0202473 C19.67325,18.0202473 19.7528036,17.9984286 19.8123214,17.9591549 C19.87125,17.9194846 19.9054286,17.8659297 19.9060179,17.8092011 L19.9472679,13.7600505 C19.9472679,13.7525132 19.9419643,13.7461659 19.941375,13.7390253 C19.9396071,13.7295044 19.9366607,13.7211736 19.933125,13.7116527 L19.933125,13.7116527 Z M16.9619464,12.5635934 L17.1723214,12.2414703 L18.9225,13.5430538 L15.3290357,13.5263923 C15.3284464,13.5259956 16.9425,12.5929495 16.9619464,12.5635934 L16.9619464,12.5635934 Z M19.2790179,17.4251923 L17.9059821,16.6940681 C17.7698571,16.6210747 17.5706786,16.6365462 17.46225,16.728978 C17.3544107,16.8210132 17.3779821,16.9547022 17.5141071,17.0272989 L18.5724643,17.5906176 L15.3567321,17.5755429 L16.4262857,17.0221418 C16.5641786,16.9507352 16.5901071,16.8170462 16.4840357,16.7242176 C16.3767857,16.6309923 16.1787857,16.6135374 16.0414821,16.6853407 L14.7568393,17.3502154 L14.7910179,13.9484846 L19.314375,13.9695099 L19.2790179,17.4251923 L19.2790179,17.4251923 Z" id="Shape"></path>
            </g>
        </g>
    </g>
</svg>