<?xml version="1.0" encoding="UTF-8" standalone="no"?>
<svg width="36px" height="36px" viewBox="0 0 36 36" version="1.1" xmlns="http://www.w3.org/2000/svg" xmlns:xlink="http://www.w3.org/1999/xlink">
    <!-- Generator: Sketch 39.1 (31720) - http://www.bohemiancoding.com/sketch -->
    <title>locate</title>
    <desc>Created with Sketch.</desc>
    <defs></defs>
    <g id="Page-1" stroke="none" stroke-width="1" fill="none" fill-rule="evenodd">
        <g id="locate" fill="#FF642E">
            <g id="noun_39653_cc">
                <g id="Page-1">
                    <g id="noun_39653_cc">
                        <path d="M15.4244526,17.5119545 L15.4265425,17.5103182 C15.4265425,17.5103182 14.8530682,17.0828182 14.9412629,16.5391364 C14.9813893,16.2928636 15.7784852,15.4705909 15.7784852,15.4705909 L15.7751413,15.4701818 C16.523333,14.6528182 16.9910573,13.5065455 16.9910573,12.2334545 C16.9910573,9.75354545 15.2234022,7.74245455 13.0436146,7.74245455 C10.8634091,7.74245455 9.09617193,9.75354545 9.09617193,12.2334545 C9.09617193,13.5065455 9.56389625,14.6532273 10.3120879,15.4701818 L10.3083261,15.4705909 C10.3083261,15.4705909 11.1050039,16.2928636 11.1455484,16.5391364 C11.2341611,17.0824091 10.6606868,17.5103182 10.6606868,17.5103182 L10.6623587,17.5119545 C8.53858103,17.8989545 6.66893774,18.7911818 5.28081226,20.0168182 C7.16801087,22.1359091 9.94467983,23.4781364 13.0427787,23.4781364 C16.1417135,23.4781364 18.9188004,22.1359091 20.8047451,20.0168182 C19.4187095,18.7911818 17.5482302,17.8989545 15.4244526,17.5119545 L15.4244526,17.5119545 L15.4244526,17.5119545 Z" id="Shape"></path>
                        <path d="M22.3579743,4.13836365 C17.3630632,-0.873 9.16346739,-0.972 4.04441503,3.91622726 C-1.07547332,8.80404545 -1.17704348,16.8291818 3.81703162,21.8405455 C8.2455741,26.2828636 15.1887095,26.8572273 20.2751591,23.5243636 C20.2479901,23.7015 20.2910425,23.8876364 20.4293952,24.0263182 C20.6617945,24.2595 21.044668,24.2652273 21.282919,24.0365455 L31.5598963,35.6342727 C31.8119407,35.8870909 32.9567994,35.1928636 34.1158696,34.0862727 C35.2753577,32.9780455 36.0110099,31.8759545 35.7602194,31.6239545 C35.7593834,31.6239545 35.7589654,31.6239545 35.7585474,31.6235455 L24.1678458,21.2817273 L24.16492,21.2841818 C24.1657559,21.2829545 24.1670099,21.2825455 24.1690998,21.2809091 C24.4077688,21.0530455 24.4127846,20.6791364 24.1799674,20.4451364 C24.0407787,20.3064545 23.8531037,20.259 23.6704447,20.2823182 C27.1986492,15.3879545 26.7856808,8.5806818 22.3579743,4.13836365 L22.3579743,4.13836365 L22.3579743,4.13836365 Z M21.0112292,20.9389091 C16.5250049,25.2208636 9.34152867,25.1345455 4.96523418,20.7437727 C0.589775693,16.3542273 0.67838834,9.32277274 5.16419468,5.04 C9.64958302,0.757227274 16.8334773,0.844363635 21.2093537,5.2343182 C25.5860662,9.6246818 25.4970356,16.6557273 21.0112292,20.9389091 L21.0112292,20.9389091 L21.0112292,20.9389091 Z" id="Shape"></path>
                    </g>
                </g>
            </g>
        </g>
    </g>
</svg>