<?xml version="1.0" encoding="UTF-8" standalone="no"?>
<svg width="36px" height="36px" viewBox="0 0 36 36" version="1.1" xmlns="http://www.w3.org/2000/svg" xmlns:xlink="http://www.w3.org/1999/xlink">
    <!-- Generator: Sketch 39.1 (31720) - http://www.bohemiancoding.com/sketch -->
    <title>notify</title>
    <desc>Created with Sketch.</desc>
    <defs></defs>
    <g id="Page-1" stroke="none" stroke-width="1" fill="none" fill-rule="evenodd">
        <g id="notify" fill="#FF642E">
            <g id="Page-1">
                <g id="noun_55692_cc">
                    <path d="M32.926738,17.8801011 C32.5472909,17.14752 31.5573473,16.2994358 30.6237573,15.9079074 L27.3233193,14.5241432 L26.3177219,14.1026021 L26.3177219,15.6778105 L28.7021021,16.6773221 L29.6839058,17.0893137 C30.0282884,17.23392 30.4334076,17.5244968 30.7439782,17.8278063 C30.9305709,18.0101558 31.0833516,18.1975074 31.1678819,18.3603032 C31.197311,18.4171453 34.1176758,24.1104505 34.1176758,27.4768674 C34.1176758,27.6419368 34.0776022,27.8224674 34.0206225,28.0084547 C33.6424277,29.2467032 32.1152472,30.8846653 30.7208106,32.1583832 C29.9825794,32.8327579 29.2850481,33.4043621 28.8204445,33.7576926 C28.4028023,34.0746442 27.4735953,34.3634021 26.8706126,34.3634021 L19.7443964,34.3634021 C19.2916898,34.3634021 18.7269022,34.0691874 18.5822615,33.7576926 L14.6124688,25.2095495 L14.613095,25.2095495 L12.0371127,19.6644884 L11.7334299,19.0105768 C11.6933563,18.9241768 11.6557872,18.8436884 11.6200967,18.7677474 L11.2362665,17.9410358 L11.1805392,17.8237137 C10.9069115,17.0911326 11.3089,16.3071663 12.192398,15.8833516 C12.7365226,15.6223326 13.3877189,15.5313853 14.0245137,15.6259705 C14.663187,15.7210105 15.2123208,15.9911242 15.5723571,16.3862905 L23.322219,24.9116968 L24.1061592,24.5360842 L24.8894731,24.1604716 L24.6922358,23.9435621 L22.4618886,21.4898021 L21.8419998,20.8076968 L24.2940043,20.8076968 C24.8926039,20.8076968 25.3791226,20.4543663 25.3791226,20.0196379 L25.3791226,0.795637895 C25.3791226,0.360909474 24.8919778,0.00757894737 24.2940043,0.00757894737 L6.34728526,0.00757894737 C5.74868563,0.00757894737 5.26216684,0.360909474 5.26216684,0.795637895 L5.26216684,20.0178189 C5.26216684,20.4525474 5.74931175,20.8058779 6.34728526,20.8058779 L10.5806872,20.8058779 L10.8981454,21.4879832 L12.3057312,24.5128926 L9.13114935,26.8184084 C8.75733766,27.0898863 8.2608005,27.23904 7.73232968,27.23904 C7.20448498,27.23904 6.70857399,27.0898863 6.33538843,26.8193179 C5.9615767,26.54784 5.75619941,26.1872337 5.75619941,25.8034358 C5.75619941,25.4196379 5.9615767,25.0594863 6.33538843,24.7884632 L8.02787257,23.5584 L10.8781086,21.4879832 L10.8774825,21.4879832 L8.22197919,21.4879832 L7.05859196,22.3333389 L5.57336354,23.4124295 C4.82574012,23.9553853 3.52459986,23.95584 2.77697644,23.4124295 C2.40379088,23.1418611 2.19903974,22.7812547 2.19903974,22.3974568 C2.19903974,22.0132042 2.40441703,21.6525979 2.77697644,21.3820295 L4.3536228,20.2374568 C4.3385952,20.1651537 4.32294143,20.0933053 4.32294143,20.0182737 L4.32294143,18.3312 L1.44891172,20.4179874 C0.720698957,20.9463916 0.320588937,21.6494147 0.320588937,22.3979116 C0.320588937,23.1464084 0.72132511,23.8494316 1.44891172,24.3778358 C2.12953706,24.8721347 3.01992274,25.1554358 3.97417575,25.19136 C3.91343919,25.3905347 3.87900093,25.5951663 3.87900093,25.8043453 C3.87900093,26.5523874 4.2797371,27.2558653 5.00857599,27.7847242 C5.73616262,28.3131284 6.70419093,28.60416 7.73358197,28.60416 L7.73358197,28.60416 C8.23825908,28.60416 8.72728243,28.5332211 9.18124138,28.3999832 C9.30271452,28.9875032 9.67339548,29.5300042 10.2626029,29.9574568 C10.9901895,30.4867705 11.9582178,30.7782568 12.9888612,30.7782568 C13.7189524,30.7782568 14.4158576,30.6291032 15.0207188,30.3553516 L16.8033686,34.19424 C17.2028525,35.0546021 18.4952266,35.7280674 19.7456487,35.7280674 L26.8731172,35.7280674 C27.9876647,35.7280674 29.4096519,35.2865179 30.1810691,34.7008168 C30.776538,34.2483537 35.9986312,30.2007411 35.9986312,27.4773221 C35.9967528,23.8617095 33.0525942,18.1233853 32.926738,17.8801011 L32.926738,17.8801011 L32.926738,17.8801011 Z M9.45236446,18.3803116 L9.94639699,19.4416674 L7.14061765,19.4416674 L7.14061765,1.37178947 L23.5006719,1.37178947 L23.5006719,19.4416674 L20.6015961,19.4416674 L17.1389851,15.6327916 C16.5028165,14.9334063 15.5304051,14.4559326 14.40083,14.28768 C13.2712549,14.1189726 12.1185123,14.2813137 11.1561193,14.7428716 C9.51122257,15.53184 8.81056041,17.0274695 9.45236446,18.3803116 L9.45236446,18.3803116 L9.45236446,18.3803116 Z M14.3858024,28.9920505 C13.6388051,29.5345516 12.3370387,29.5350063 11.5900414,28.9920505 C11.2168559,28.7210274 11.0108525,28.3608758 11.0114786,27.9779874 C11.0114786,27.5946442 11.2174821,27.2340379 11.5912937,26.96256 L12.9769643,25.9562274 L14.3858024,28.9920505 L14.3858024,28.9920505 L14.3858024,28.9920505 Z" id="Shape"></path>
                </g>
            </g>
        </g>
    </g>
</svg>