<?xml version="1.0" encoding="UTF-8" standalone="no"?>
<svg width="35px" height="36px" viewBox="0 0 35 36" version="1.1" xmlns="http://www.w3.org/2000/svg" xmlns:xlink="http://www.w3.org/1999/xlink">
    <!-- Generator: Sketch 39.1 (31720) - http://www.bohemiancoding.com/sketch -->
    <title>payonline</title>
    <desc>Created with Sketch.</desc>
    <defs></defs>
    <g id="Page-1" stroke="none" stroke-width="1" fill="none" fill-rule="evenodd">
        <g id="payonline" fill="#FF642E">
            <g id="Group">
                <path d="M34.9090909,3.07251099 C34.9090909,1.39318402 33.8001818,0.0258451395 32.4370909,0.0258451395 L2.47254545,0.0258451395 C1.10945455,0.0265047337 0,1.39318402 0,3.07251099 L0,5.76497473 L34.9090909,5.76497473 L34.9090909,3.07251099 L34.9090909,3.07251099 Z M3.41018182,3.78817075 C3.00436364,3.78817075 2.676,3.39043542 2.676,2.90035689 C2.676,2.41027836 3.00490909,2.01254303 3.41018182,2.01254303 C3.816,2.01254303 4.14436364,2.41027836 4.14436364,2.90035689 C4.14436364,3.39043542 3.81545455,3.78817075 3.41018182,3.78817075 L3.41018182,3.78817075 Z M5.61272727,3.78817075 C5.20690909,3.78817075 4.87854545,3.39043542 4.87854545,2.90035689 C4.87854545,2.41027836 5.20745455,2.01254303 5.61272727,2.01254303 C6.018,2.01254303 6.34690909,2.41027836 6.34690909,2.90035689 C6.34690909,3.39043542 6.01854545,3.78817075 5.61272727,3.78817075 L5.61272727,3.78817075 Z M7.81581818,3.78817075 C7.41,3.78817075 7.08163636,3.39043542 7.08163636,2.90035689 C7.08163636,2.41027836 7.41054545,2.01254303 7.81581818,2.01254303 C8.22163636,2.01254303 8.55,2.41027836 8.55,2.90035689 C8.55,3.39043542 8.22163636,3.78817075 7.81581818,3.78817075 L7.81581818,3.78817075 Z M30.6474545,3.78751116 L12.8383636,3.78751116 C12.4347273,3.78751116 12.1041818,3.38779704 12.1041818,2.8996973 C12.1041818,2.41159755 12.4347273,2.01188343 12.8383636,2.01188343 L30.6474545,2.01188343 C31.0510909,2.01188343 31.3816364,2.41159755 31.3816364,2.8996973 C31.3816364,3.38845664 31.0510909,3.78751116 30.6474545,3.78751116 L30.6474545,3.78751116 Z" id="Shape"></path>
                <rect id="Rectangle-path" x="10.698" y="26.6793893" width="7.45036364" height="0.600890363"></rect>
                <rect id="Rectangle-path" x="10.698" y="28.4814008" width="4.47054545" height="0.600890363"></rect>
                <path d="M34.9090909,6.68840668 L0,6.68840668 L0,35.2270712 L34.9090909,35.2270712 L34.9090909,6.68840668 L34.9090909,6.68840668 Z M20.9083636,9.85907625 L22.3865455,12.9552117 L21.4358182,12.9552117 L21.4358182,16.3752079 L20.4850909,16.3752079 L20.4850909,12.9552117 L19.4301818,12.9552117 L20.9083636,9.85907625 L20.9083636,9.85907625 Z M13.4732727,13.0884497 L13.4732727,9.66845351 L14.424,9.66845351 L14.424,13.0884497 L15.4789091,13.0884497 L14.0007273,16.1845851 L12.5225455,13.0884497 L13.4732727,13.0884497 L13.4732727,13.0884497 Z M26.5189091,31.4627668 C26.5189091,31.8453314 26.2598182,32.1586387 25.9434545,32.1586387 L8.96563636,32.1586387 C8.64927273,32.1586387 8.39018182,31.8453314 8.39018182,31.4627668 L8.39018182,24.2764874 L26.5194545,24.2764874 L26.5194545,31.4627668 L26.5189091,31.4627668 Z M26.5189091,20.673124 L8.39018182,20.673124 L8.39018182,19.1929945 C8.39018182,18.8104298 8.64927273,18.4971226 8.96563636,18.4971226 L25.9434545,18.4971226 C26.2598182,18.4971226 26.5189091,18.8104298 26.5189091,19.1929945 L26.5189091,20.673124 L26.5189091,20.673124 Z" id="Shape"></path>
            </g>
        </g>
    </g>
</svg>