<?xml version="1.0" encoding="UTF-8" standalone="no"?>
<svg width="36px" height="36px" viewBox="0 0 36 36" version="1.1" xmlns="http://www.w3.org/2000/svg" xmlns:xlink="http://www.w3.org/1999/xlink">
    <!-- Generator: Sketch 39.1 (31720) - http://www.bohemiancoding.com/sketch -->
    <title>rating</title>
    <desc>Created with Sketch.</desc>
    <defs></defs>
    <g id="Page-1" stroke="none" stroke-width="1" fill="none" fill-rule="evenodd">
        <g id="rating" fill="#FF642E">
            <g id="noun_16600_cc">
                <g id="Page-1">
                    <g id="noun_16600_cc">
                        <path d="M2.80688031,0.0955714286 C1.27265362,0.0955714286 0,1.614 0,3.44357143 L0,23.667 C0,25.497 1.27265362,27.015 2.80688031,27.015 L6.82102095,27.015 L6.90509803,32.6065714 L6.96114938,35.9044286 L8.95420689,33.6107143 L14.7088145,27.0145714 L33.1231279,27.0145714 C34.6577139,27.0145714 35.9300082,25.4961429 35.9300082,23.6665714 L35.9300082,3.44357143 C35.9300082,1.61357143 34.6573546,0.0955714286 33.1231279,0.0955714286 L2.80688031,0.0955714286 L2.80688031,0.0955714286 L2.80688031,0.0955714286 Z M2.80688031,2.97471429 L33.1231279,2.97471429 C33.3591904,2.97471429 33.5162061,3.16157143 33.5162061,3.44357143 L33.5162061,23.667 C33.5162061,23.9485714 33.3591904,24.1358571 33.1231279,24.1358571 L14.2176464,24.1358571 L13.7404911,24.1358571 L13.3894515,24.5378571 L9.27722087,29.2585714 L9.20715668,25.542 L9.19314383,24.1358571 L8.00025564,24.1358571 L2.80688031,24.1358571 C2.57045849,24.1358571 2.41380209,23.9485714 2.41380209,23.667 L2.41380209,3.44357143 C2.41416139,3.16157143 2.5708178,2.97471429 2.80688031,2.97471429 L2.80688031,2.97471429 L2.80688031,2.97471429 Z" id="Shape"></path>
                        <polygon id="Shape" points="8.68580705 11.0665714 6.40135429 10.8857143 5.26128373 8.74542859 4.41332705 11.0451429 2.17235002 11.589 3.92862638 13.2197143 3.70837323 15.7054286 5.62992928 14.3875714 7.70957897 15.3882857 7.16415599 12.9565714"></polygon>
                        <polygon id="Shape" points="14.8762501 11.0665714 12.5921566 10.8857143 11.452086 8.74542859 10.6041294 11.0451429 8.36351165 11.589 10.1194287 13.2197143 9.89953487 15.7054286 11.8207316 14.3875714 13.9003813 15.3882857 13.3549583 12.9565714"></polygon>
                        <polygon id="Shape" points="21.0670524 11.0665714 18.7829589 10.8857143 17.6428883 8.74542859 16.7949317 11.0451429 14.554314 11.589 16.3105903 13.2197143 16.0899779 15.7054286 18.0118932 14.3875714 20.0915429 15.3882857 19.5461199 12.9565714"></polygon>
                        <polygon id="Shape" points="27.2585733 11.0665714 24.9737613 10.8857143 23.83405 8.74542859 22.9860933 11.0451429 20.7451163 11.589 22.5013927 13.2197143 22.2807802 15.7054286 24.2023363 14.3875714 26.2819859 15.3882857 25.736563 12.9565714"></polygon>
                        <path d="M28.4715825,15.618 L28.6918357,13.1322857 L26.9355593,11.502 L29.176177,10.9577143 L30.0237744,8.658 L31.1645636,10.7987143 L33.4482977,10.9795714 L31.927006,12.8695714 L32.4727882,15.3008571 L30.3927793,14.3005714 L28.4715825,15.618 L28.4715825,15.618 L28.4715825,15.618 Z M27.8661558,11.7617143 L29.1125803,12.9192857 L28.9516122,14.7398571 L30.362957,13.7721429 L31.8810151,14.502 L31.4843438,12.7332857 L32.568363,11.3867143 L30.9371243,11.2572857 L30.089527,9.66642859 L29.4596676,11.3751429 L27.8661558,11.7617143 L27.8661558,11.7617143 L27.8661558,11.7617143 Z" id="Shape"></path>
                    </g>
                </g>
            </g>
        </g>
    </g>
</svg>